<?xml version="1.0" encoding="utf-8"?>
<!-- Generator: Adobe Illustrator 17.1.0, SVG Export Plug-In . SVG Version: 6.00 Build 0)  -->
<!DOCTYPE svg PUBLIC "-//W3C//DTD SVG 1.1//EN" "http://www.w3.org/Graphics/SVG/1.1/DTD/svg11.dtd">
<svg version="1.1" id="Layer_1" xmlns="http://www.w3.org/2000/svg" xmlns:xlink="http://www.w3.org/1999/xlink" x="0px" y="0px"
	 viewBox="0 0 200 200" enable-background="new 0 0 200 200" xml:space="preserve">
<rect fill="#F15A24" width="200" height="200"/>
<g>
	<rect x="44.169" y="73.761" fill="none" width="111.662" height="52.478"/>
	<path fill="#FFFFFF" d="M91.648,117.464c-0.504,1.681-1.344,3.181-2.52,4.5c-1.177,1.321-2.736,2.376-4.68,3.168
		c-1.944,0.793-4.356,1.189-7.236,1.189c-4.8,0-8.496-1.261-11.088-3.781c-2.592-2.52-3.888-6.228-3.888-11.124v-3.168h6.84v2.16
		c0,1.488,0.12,2.856,0.36,4.104c0.239,1.248,0.659,2.328,1.26,3.239c0.6,0.913,1.44,1.62,2.52,2.124s2.459,0.756,4.14,0.756
		c3.12,0,5.267-0.839,6.444-2.52c1.176-1.68,1.764-3.936,1.764-6.769V73.76h6.84v38.593
		C92.404,114.08,92.152,115.784,91.648,117.464z"/>
	<path fill="#FFFFFF" d="M137.403,73.76v5.76h-26.928v16.344h23.617v5.76h-23.617v23.544h-6.84V73.76H137.403z"/>
</g>
</svg>
