<?xml version="1.0" encoding="utf-8"?>
<!-- Generator: Adobe Illustrator 18.1.1, SVG Export Plug-In . SVG Version: 6.00 Build 0)  -->
<svg version="1.1" id="Layer_1" xmlns="http://www.w3.org/2000/svg" xmlns:xlink="http://www.w3.org/1999/xlink" x="0px" y="0px"
	 viewBox="765 90 435 435" enable-background="new 765 90 435 435" xml:space="preserve">
<g>
	<rect x="765" y="90" fill="#F2F2F2" width="435" height="435"/>
	<path fill="#F38A00" d="M1062.7,195.1c0,15.3,0,30.2,0,46.3c-34.4,0-68.8,0-103.8,0c0,16.1,0,31,0,46.8c27.5,0,54.7,0,82.6,0
		c0,16.1,0,31.3,0,47.3c-27.7,0-54.9,0-82.9,0c0,28.5,0,56.1,0,84.4c-19,0-37.2,0-56.2,0c0-74.6,0-149.3,0-224.8
		C955.4,195.1,1008.9,195.1,1062.7,195.1z"/>
</g>
<g display="none" opacity="0.36">
	<circle display="inline" fill="#E74C3C" cx="1082.5" cy="336" r="9.5"/>
	<circle display="inline" fill="#BF009C" cx="972.5" cy="460.5" r="9.5"/>
	<circle display="inline" fill="#3498DB" cx="929.5" cy="129.5" r="9.5"/>
	<circle display="inline" fill="#16A085" cx="848.6" cy="254.6" r="16.1"/>
	<circle display="inline" fill="#E74C3C" cx="804.6" cy="407.9" r="16.1"/>
	<circle display="inline" fill="#9B59B6" cx="1159.5" cy="211.1" r="16.1"/>
	<circle display="inline" fill="#F1C40F" cx="1127.2" cy="429.1" r="16.1"/>
	<circle display="inline" fill="#2980B9" cx="1159.5" cy="307" r="29"/>
	<circle display="inline" fill="#27AE60" cx="1098.2" cy="158.5" r="29"/>
	<circle display="inline" fill="#8E44AD" cx="809.5" cy="149" r="29"/>
	<circle display="inline" fill="#3498DB" cx="1083.5" cy="455.2" r="9.5"/>
	<circle display="inline" fill="#1ABC9C" cx="854.6" cy="460.5" r="29"/>
</g>
</svg>
