<svg xmlns="http://www.w3.org/2000/svg" version="1.1" x="0px" y="0px" viewBox="0 0 1200 435" enable-background="new 0 0 1200 435" xml:space="preserve">
  <rect fill="#BDC3C7" width="1200" height="435"/>
  <path fill="#E67E22" d="M479.1 248.9c6.5 26.3 14.8 37.8 42.4 49.9C549 310.9 562.1 324 573 324c10.8 0 23.1-11.5 50.7-23.6 27.6-12.1 20.2-15.7 26.7-42.1L573 296 479.1 248.9zM706.3 180.2l-116.7-65.3c-9.1-5.1-24.1-5.1-33.2 0l-116.7 65.3c-9.1 5.1-9.1 13.5 0 18.6l116.7 65.3c9.1 5.1 24.1 5.1 33.2 0l75.4-42.2 -81.8-19.2c-3.2 0.8-6.6 1.2-10.3 1.2 -14.7 0-26.7-7.1-26.7-15.9 0-8.8 11.9-15.9 26.7-15.9 11.4 0 21.2 4.3 25 10.3l86.6 28.4 21.7-12.2C715.4 193.7 715.4 185.3 706.3 180.2zM670.6 304c-0.9 5.4 18 14.2 19.8-1.5 8.1-71.1-5.8-91.5-5.8-91.5L665 221.9C665 221.9 681.6 237.7 670.6 304z"/>
  <path fill="#E67E22" d="M925.5 242.7l-42.6-17.1v14.4l42.6 17.1V242.7zM925.5 198.4l-42.6-17.1v14.4l42.6 17.1V198.4zM1040.2 124.4c-2.9-2-6.6-2.4-9.9-1.1L949 155.9l-81.3-32.5c-3.3-1.3-7-0.9-9.9 1.1 -2.9 2-4.7 5.3-4.7 8.8v136.4c0 4.4 2.7 8.3 6.7 9.9l85.1 34c0 0 1.7 0.6 2.1 0.6 0.7 0.1 1.4 0.2 2.1 0.2 0.7 0 1.4-0.1 2.1-0.2 0.3-0.1 2.1-0.6 2.1-0.6l85.1-34c4-1.6 6.7-5.5 6.7-9.9V133.2C1044.9 129.7 1043.1 126.4 1040.2 124.4zM938.3 292.6l-68.2-27.3V145.9l68.2 27.3V292.6zM1027.8 265.3l-68.2 27.3V173.2l68.2-27.3V265.3zM1015 225.6l-42.6 17.1v14.4l42.6-17.1V225.6zM1015 181.4l-42.6 17.1v14.4l42.6-17.1V181.4z"/>
  <path fill-rule="evenodd" clip-rule="evenodd" fill="#E67E22" d="M195.7 306.4c7.6 4.9 16.5 8.3 27.3 8 10.8 0.3 19.6-3.1 27.3-8v-20.1h-54.6V306.4zM249.1 274.7c0-42.2 44.9-55.7 41.5-97.8 -2.1-26.5-20.1-56.3-67.7-56.3 -47.6 0-65.5 29.8-67.7 56.3 -3.4 42.1 41.5 55.6 41.5 97.8H249.1zM175.8 178.4c2-25.2 19.1-38 47.1-38s45.1 12.8 47.1 38c1.1 13.8-6.8 23-17.5 38.1 -7.9 11.1-17.2 24.2-21.6 41.3h-16c-4.4-17.1-13.7-30.2-21.6-41.3C182.7 201.4 174.7 192.2 175.8 178.4z"/>
</svg>
